# xmcd CD database file
#
# Track frame offsets:
#	150
#	22728
#	43703
#	62579
#	79713
#	100739
#	117597
#	136106
#
# Disc length: 2146 seconds
#
# Revision: 1
# Processed by: cddbd v1.5.2PL0 Copyright (c) Steve Scherf et al.
# Submitted via: CDex 1.51
#
DISCID=5b086008
DTITLE=Roland Hanna - Destry Rides Again
DYEAR=1957
DGENRE=Jazz
TTITLE0=I Know Your Kind
TTITLE1=Fair Warning
TTITLE2=Rose Lovejoy Of Paradise Alley
TTITLE3=That Ring On The Finger
TTITLE4=Once Knew A Fella
TTITLE5=Anyone Would Love You
TTITLE6=I Say Hello
TTITLE7=Hoop De Dingle
EXTD=YEAR: 1957
EXTT0=
EXTT1=
EXTT2=
EXTT3=
EXTT4=
EXTT5=
EXTT6=
EXTT7=
PLAYORDER=
